<svg id="Calque_1" data-name="Calque 1" xmlns="http://www.w3.org/2000/svg" viewBox="0 0 214.2 126.55"><defs><style>.cls-1{fill:#59cbff;}</style></defs><title>test</title><path class="cls-1" d="M197.83,113.26c-6.66,0-11.86-3.2-16.89-6.3s-9.73-6-15.86-6-10.85,2.91-15.86,6-10.22,6.3-16.89,6.3-11.85-3.2-16.88-6.3-9.74-6-15.86-6-10.86,2.91-15.86,6-10.23,6.3-16.89,6.3S55,110.06,50,107s-9.73-6-15.86-6-10.85,2.91-15.86,6S8,113.26,1.35,113.26a22.63,22.63,0,0,1-8.86-1.9l.73-3.6a20.58,20.58,0,0,0,8.13,1.75c6.12,0,10.85-2.91,15.86-6s10.22-6.29,16.88-6.29S46,100.43,51,103.52s9.73,6,15.86,6,10.86-2.91,15.86-6,10.23-6.29,16.89-6.29,11.86,3.2,16.88,6.29,9.74,6,15.86,6,10.86-2.91,15.87-6,10.22-6.29,16.88-6.29,11.86,3.2,16.89,6.29,9.73,6,15.86,6a20.54,20.54,0,0,0,8.12-1.75l.74,3.6A22.67,22.67,0,0,1,197.83,113.26Z" transform="translate(7.51 13.3)"/><path class="cls-1" d="M197.83,94.83c-6.66,0-11.86-3.19-16.89-6.29s-9.73-6-15.86-6-10.85,2.91-15.86,6S139,94.83,132.33,94.83s-11.85-3.19-16.88-6.29-9.74-6-15.86-6-10.86,2.91-15.86,6S73.5,94.83,66.84,94.83,55,91.64,50,88.54s-9.73-6-15.86-6-10.85,2.91-15.86,6S8,94.83,1.35,94.83a22.61,22.61,0,0,1-8.86-1.89l.73-3.6a20.58,20.58,0,0,0,8.13,1.75c6.12,0,10.85-2.91,15.86-6s10.22-6.29,16.88-6.29S46,82,51,85.1s9.73,6,15.86,6,10.86-2.91,15.86-6,10.23-6.29,16.89-6.29,11.86,3.2,16.88,6.29,9.74,6,15.86,6,10.86-2.91,15.87-6,10.22-6.29,16.88-6.29S176.94,82,182,85.1s9.73,6,15.86,6A20.54,20.54,0,0,0,206,89.34l.74,3.6A22.65,22.65,0,0,1,197.83,94.83Z" transform="translate(7.51 13.3)"/><path class="cls-1" d="M197.83,76.41c-6.66,0-11.86-3.2-16.89-6.29s-9.73-6-15.86-6-10.85,2.91-15.86,6S139,76.41,132.33,76.41s-11.85-3.2-16.88-6.29-9.74-6-15.86-6-10.86,2.91-15.86,6S73.5,76.41,66.84,76.41,55,73.21,50,70.12s-9.73-6-15.86-6-10.85,2.91-15.86,6S8,76.41,1.35,76.41a22.45,22.45,0,0,1-8.86-1.9l.73-3.59a20.58,20.58,0,0,0,8.13,1.75c6.12,0,10.85-2.91,15.86-6s10.22-6.29,16.88-6.29S46,63.59,51,66.68s9.73,6,15.86,6,10.86-2.91,15.86-6,10.23-6.29,16.89-6.29,11.86,3.2,16.88,6.29,9.74,6,15.86,6,10.86-2.91,15.87-6,10.22-6.29,16.88-6.29,11.86,3.2,16.89,6.29,9.73,6,15.86,6A20.57,20.57,0,0,0,206,70.92l.74,3.59A22.49,22.49,0,0,1,197.83,76.41Z" transform="translate(7.51 13.3)"/><path class="cls-1" d="M197.83,58c-6.66,0-11.86-3.2-16.89-6.29s-9.73-6-15.86-6-10.85,2.91-15.86,6S139,58,132.33,58s-11.85-3.2-16.88-6.29-9.74-6-15.86-6-10.86,2.91-15.86,6S73.5,58,66.84,58,55,54.79,50,51.7s-9.73-6-15.86-6-10.85,2.91-15.86,6S8,58,1.35,58a22.45,22.45,0,0,1-8.86-1.9l.73-3.59a20.58,20.58,0,0,0,8.13,1.75c6.12,0,10.85-2.91,15.86-6S27.43,42,34.09,42,46,45.16,51,48.26s9.73,6,15.86,6,10.86-2.91,15.86-6S92.93,42,99.59,42s11.86,3.19,16.88,6.29,9.74,6,15.86,6,10.86-2.91,15.87-6S158.42,42,165.08,42s11.86,3.19,16.89,6.29,9.73,6,15.86,6A20.57,20.57,0,0,0,206,52.5l.74,3.59A22.49,22.49,0,0,1,197.83,58Z" transform="translate(7.51 13.3)"/><path class="cls-1" d="M197.83,39.57c-6.66,0-11.86-3.2-16.89-6.29s-9.73-6-15.86-6-10.85,2.91-15.86,6S139,39.57,132.33,39.57s-11.85-3.2-16.88-6.29-9.74-6-15.86-6-10.86,2.91-15.86,6S73.5,39.57,66.84,39.57,55,36.37,50,33.28s-9.73-6-15.86-6-10.85,2.91-15.86,6S8,39.57,1.35,39.57a22.45,22.45,0,0,1-8.86-1.9l.73-3.59a20.76,20.76,0,0,0,8.13,1.75c6.12,0,10.85-2.91,15.86-6s10.22-6.3,16.88-6.3S46,26.74,51,29.84s9.73,6,15.86,6,10.86-2.91,15.86-6,10.23-6.3,16.89-6.3,11.86,3.2,16.88,6.3,9.74,6,15.86,6,10.86-2.91,15.87-6,10.22-6.3,16.88-6.3,11.86,3.2,16.89,6.3,9.73,6,15.86,6A20.71,20.71,0,0,0,206,34.08l.74,3.59A22.49,22.49,0,0,1,197.83,39.57Z" transform="translate(7.51 13.3)"/><path class="cls-1" d="M197.83,21.15c-6.66,0-11.86-3.2-16.89-6.29s-9.73-6-15.86-6-10.85,2.91-15.86,6S139,21.15,132.33,21.15s-11.85-3.2-16.88-6.29-9.74-6-15.86-6-10.86,2.91-15.86,6S73.5,21.15,66.84,21.15,55,18,50,14.86s-9.73-6-15.86-6-10.85,2.91-15.86,6S8,21.15,1.35,21.15a22.45,22.45,0,0,1-8.86-1.9l.73-3.59A20.74,20.74,0,0,0,1.35,17.4c6.12,0,10.85-2.91,15.86-6s10.22-6.3,16.88-6.3S46,8.32,51,11.42s9.73,6,15.86,6,10.86-2.9,15.86-6,10.23-6.3,16.89-6.3,11.86,3.2,16.88,6.3,9.74,6,15.86,6,10.86-2.91,15.87-6,10.22-6.3,16.88-6.3,11.86,3.2,16.89,6.3,9.73,6,15.86,6A20.7,20.7,0,0,0,206,15.66l.74,3.59A22.49,22.49,0,0,1,197.83,21.15Z" transform="translate(7.51 13.3)"/><path class="cls-1" d="M197.83,2.73c-6.66,0-11.86-3.2-16.89-6.3s-9.73-6-15.86-6-10.85,2.9-15.86,6S139,2.73,132.33,2.73s-11.85-3.2-16.88-6.3-9.74-6-15.86-6-10.86,2.9-15.86,6S73.5,2.73,66.84,2.73,55-.47,50-3.57s-9.73-6-15.86-6-10.85,2.9-15.86,6S8,2.73,1.35,2.73A22.45,22.45,0,0,1-7.51.83l.73-3.59A20.74,20.74,0,0,0,1.35-1C7.47-1,12.2-3.93,17.21-7S27.43-13.3,34.09-13.3,46-10.1,51-7s9.73,6,15.86,6S77.7-3.93,82.7-7,92.93-13.3,99.59-13.3,111.45-10.1,116.47-7s9.74,6,15.86,6,10.86-2.91,15.87-6,10.22-6.29,16.88-6.29S176.94-10.1,182-7s9.73,6,15.86,6A20.7,20.7,0,0,0,206-2.76l.74,3.59A22.49,22.49,0,0,1,197.83,2.73Z" transform="translate(7.51 13.3)"/></svg>